<svg id="Component_20_15" data-name="Component 20 – 15" xmlns="http://www.w3.org/2000/svg" xmlns:xlink="http://www.w3.org/1999/xlink" width="250" height="33.084" viewBox="0 0 250 33.084">
		<defs>
			<clipPath id="clip-path">
				<rect id="Rectangle_524" data-name="Rectangle 524" width="38.12" height="25.055"></rect>
			</clipPath>
		</defs>
		<g id="Group_1033" data-name="Group 1033">
			<g id="Group_795" data-name="Group 795" transform="translate(0 0.522)">
				<g id="Group_794" data-name="Group 794" transform="translate(0 0)" clip-path="url(#clip-path)">
					<path id="Path_319" data-name="Path 319" d="M21.519,25.055H9.629L9.5,24.991,0,12.425v-.195L9.2.064,9.325,0h11.89l.129.258L12.295,12.231v.195L21.648,24.8l-.129.259" transform="translate(0 0)"></path>
					<path id="Path_320" data-name="Path 320" d="M80.914,1.914l-6.286,8.313h-.257L66.836.258,66.965,0h12.57l.129.064,1.251,1.655v.195" transform="translate(-42.794 0)"></path>
					<path id="Path_321" data-name="Path 321" d="M80.914,49.537l-6.286-8.313h-.257l-7.536,9.968.129.258h12.57l.129-.064,1.251-1.655v-.195" transform="translate(-42.794 -26.395)"></path>
				</g>
			</g>
			<g id="Group_823" data-name="Group 823" transform="translate(51.424)">
				<path id="Path_375" data-name="Path 375" d="M1259.6,761.369a11.643,11.643,0,0,1,8.769-3.6,31.175,31.175,0,0,1,8.454,1.5V765.6h-.209q-4.158-6.253-7.686-6.254-2.8,0-4.751,3.267a17.557,17.557,0,0,0,.052,16.21q2.009,3.3,4.734,3.3,3.389,0,7.651-6.323h.209v6.359a31.484,31.484,0,0,1-8.664,1.537,11.37,11.37,0,0,1-8.559-3.615,14.379,14.379,0,0,1,0-18.708" transform="translate(-1256.146 -757.175)"></path>
				<path id="Path_376" data-name="Path 376" d="M1363.647,757.118v-.14l6.148-.7v10.935a5.863,5.863,0,0,1,5.135-2.655,6.155,6.155,0,0,1,4.891,2.306,9.755,9.755,0,0,1,1.956,6.5q0,4.473-2.219,6.9a6.859,6.859,0,0,1-5.223,2.428,6.172,6.172,0,0,1-4.576-1.922l-5.1,1.817V762.393a17.075,17.075,0,0,0-1.013-5.275m8.384,23.023a3.38,3.38,0,0,0,3.214-1.957,10.4,10.4,0,0,0,1.013-4.821,8.805,8.805,0,0,0-.908-4.227,2.952,2.952,0,0,0-2.76-1.677,4.267,4.267,0,0,0-2.795,1.223v10.9a4.547,4.547,0,0,0,2.236.559" transform="translate(-1320.814 -756.279)"></path>
				<path id="Path_377" data-name="Path 377" d="M1487.636,761.369a11.642,11.642,0,0,1,8.769-3.6,31.181,31.181,0,0,1,8.455,1.5V765.6h-.21q-4.158-6.253-7.686-6.254-2.8,0-4.751,3.267a17.558,17.558,0,0,0,.052,16.21q2.009,3.3,4.734,3.3,3.388,0,7.651-6.323h.21v6.359a31.487,31.487,0,0,1-8.664,1.537,11.37,11.37,0,0,1-8.559-3.615,14.378,14.378,0,0,1,0-18.708" transform="translate(-1393.324 -757.175)"></path>
				<path id="Path_378" data-name="Path 378" d="M1589.679,777.41l6.044-.14v2.445a5.862,5.862,0,0,1,5.135-2.655,6.17,6.17,0,0,1,4.874,2.306,9.7,9.7,0,0,1,1.974,6.5q0,4.473-2.184,6.9a6.651,6.651,0,0,1-5.083,2.428,5.929,5.929,0,0,1-4.716-2.166v3.318a12.647,12.647,0,0,0,.14,1.782q.139.978.3,1.642t.314,1.275a6.468,6.468,0,0,1,.157.681v.139h-6.917v-.139a6.57,6.57,0,0,1,.157-.681q.157-.612.314-1.275t.3-1.642a12.756,12.756,0,0,0,.14-1.782V782.9a13.168,13.168,0,0,0-.21-2.253q-.209-1.206-.454-2.148t-.245-.978Zm8.595,15.232a3.126,3.126,0,0,0,2.952-1.9,10.54,10.54,0,0,0,.961-4.769,9.226,9.226,0,0,0-.891-4.315,2.939,2.939,0,0,0-2.777-1.694,4.267,4.267,0,0,0-2.8,1.223v10.55a4.427,4.427,0,0,0,2.551.908" transform="translate(-1456.79 -768.78)"></path>
				<path id="Path_379" data-name="Path 379" d="M1736.932,756.979l6.114-.7v20.577a12.741,12.741,0,0,0,.139,1.782q.139.978.3,1.642t.314,1.275a6.459,6.459,0,0,1,.158.681v.14h-6.917v-.14a6.837,6.837,0,0,1,.157-.681q.157-.611.315-1.275t.3-1.642a12.7,12.7,0,0,0,.139-1.782V762.394a17.084,17.084,0,0,0-1.013-5.275Z" transform="translate(-1545.378 -756.281)"></path>
				<path id="Path_380" data-name="Path 380" d="M1320.073,777.587v11.354a3.345,3.345,0,0,0,.839,2.516,3,3,0,0,0,2.167.8,6.043,6.043,0,0,0,3.179-1.048c-.047-.512-.07-.873-.07-1.083v-7.022a12.751,12.751,0,0,0-.139-1.782q-.141-.978-.3-1.642t-.315-1.275a6.665,6.665,0,0,1-.157-.681v-.14h5.974v12.088a12.322,12.322,0,0,0,.087,1.415q.087.751.228,1.415t.245,1.135q.1.471.245.926l.14.489v.14h-4.856a11.531,11.531,0,0,1-.944-3.075,6.5,6.5,0,0,1-5.659,3.389,5.836,5.836,0,0,1-4.123-1.52,5.632,5.632,0,0,1-1.642-4.349v-6.533a12.881,12.881,0,0,0-.139-1.782q-.141-.978-.3-1.642t-.315-1.275a6.7,6.7,0,0,1-.157-.681v-.14Z" transform="translate(-1290.989 -769.098)"></path>
				<path id="Path_381" data-name="Path 381" d="M1574.722,791.5l.042,6.489a12.191,12.191,0,0,0,.087,1.415q.086.752.227,1.415t.245,1.135q.1.471.244.926l.14.489v.139l-5.83-5.52-.221-6.568" transform="translate(-1444.746 -777.419)"></path>
				<path id="Path_382" data-name="Path 382" d="M1573.792,810.157l1.99,4.622-5.058.009a11.529,11.529,0,0,1-.943-3.074Z" transform="translate(-1444.821 -788.691)"></path>
				<path id="Path_383" data-name="Path 383" d="M1553.577,792.4a5.889,5.889,0,0,1-5.311,2.795,5.279,5.279,0,0,1-4.122-1.659,5.57,5.57,0,0,1-1.5-3.86,4.72,4.72,0,0,1,2.166-4.175,8.48,8.48,0,0,1,4.821-1.449q.454,0,.944.035a9.3,9.3,0,0,1,2.829.524v-2.061q0-3.947-1.817-3.948-1.328,0-4.122,1.922a16.836,16.836,0,0,0-3.319,2.655h-.175v-4.821a29.548,29.548,0,0,1,7.93-1.293,6.931,6.931,0,0,1,4.961,1.572,5.578,5.578,0,0,1,1.642,4.227v7.232m-10.551-1.118a3.559,3.559,0,0,0,.856,2.463,2.871,2.871,0,0,0,2.253.961,3.12,3.12,0,0,0,2.341-1.083v-5.66a6.189,6.189,0,0,1-.734-.035,6.676,6.676,0,0,0-.943-.07,4.17,4.17,0,0,0-2.673.873,3.062,3.062,0,0,0-1.1,2.55" transform="translate(-1428.495 -768.78)"></path>
				<path id="Path_384" data-name="Path 384" d="M1720.435,791.5l.042,6.489a12.167,12.167,0,0,0,.087,1.415q.086.752.227,1.415t.245,1.135q.1.471.244.926l.14.489v.139l-5.83-5.52-.221-6.568" transform="translate(-1532.405 -777.419)"></path>
				<path id="Path_385" data-name="Path 385" d="M1719.506,810.157l1.99,4.622-5.058.009a11.547,11.547,0,0,1-.944-3.074Z" transform="translate(-1532.479 -788.691)"></path>
				<path id="Path_386" data-name="Path 386" d="M1699.291,792.4a5.888,5.888,0,0,1-5.311,2.795,5.28,5.28,0,0,1-4.122-1.659,5.573,5.573,0,0,1-1.5-3.86,4.72,4.72,0,0,1,2.166-4.175,8.477,8.477,0,0,1,4.821-1.449q.453,0,.943.035a9.3,9.3,0,0,1,2.83.524v-2.061q0-3.947-1.817-3.948-1.328,0-4.122,1.922a16.845,16.845,0,0,0-3.319,2.655h-.175v-4.821a29.548,29.548,0,0,1,7.93-1.293,6.93,6.93,0,0,1,4.961,1.572,5.578,5.578,0,0,1,1.642,4.227v7.232m-10.551-1.118a3.559,3.559,0,0,0,.856,2.463,2.871,2.871,0,0,0,2.253.961,3.119,3.119,0,0,0,2.341-1.083v-5.66a6.184,6.184,0,0,1-.734-.035,6.672,6.672,0,0,0-.943-.07,4.169,4.169,0,0,0-2.673.873,3.062,3.062,0,0,0-1.1,2.55" transform="translate(-1516.153 -768.78)"></path>
				<path id="Path_387" data-name="Path 387" d="M1662.5,780.616V770.21h-2.55v-1.4a16.767,16.767,0,0,0,4.262-2.568,20.508,20.508,0,0,0,3.214-3.476h.174v5.9h3.386v1.537H1667.6v10.376" transform="translate(-1499.064 -760.184)"></path>
				<path id="Path_388" data-name="Path 388" d="M1670.028,777.565l.042,12.088a12.135,12.135,0,0,0,.087,1.415q.086.751.227,1.415t.244,1.136q.105.471.244.926l.14.489v.14h-6.959v-.14a6.305,6.305,0,0,1,.175-.7q.139-.593.3-1.257t.3-1.642a12.82,12.82,0,0,0,.14-1.782v-6.568" transform="translate(-1501.535 -769.084)"></path>
				<path id="Path_389" data-name="Path 389" d="M1639.678,794.357q.139-.594.3-1.258t.3-1.642a12.7,12.7,0,0,0,.14-1.782v-6.568a24.834,24.834,0,0,0-.909-5.38v-.139h5.974v12.087a12.221,12.221,0,0,0,.087,1.415q.086.751.227,1.415t.245,1.135q.1.472.244.926l.14.489v.14H1639.5v-.14a6.358,6.358,0,0,1,.175-.7" transform="translate(-1486.766 -769.097)"></path>
				<path id="Path_390" data-name="Path 390" d="M1414,794.357q.139-.594.3-1.258t.3-1.642a12.7,12.7,0,0,0,.14-1.782v-6.568a24.845,24.845,0,0,0-.908-5.38v-.139h5.974v12.087a12.219,12.219,0,0,0,.087,1.415q.087.751.227,1.415t.245,1.135q.1.472.244.926l.14.489v.14h-6.917v-.14a6.274,6.274,0,0,1,.175-.7" transform="translate(-1351.001 -769.097)"></path>
				<path id="Path_391" data-name="Path 391" d="M1436.976,780.616V770.21h-2.55v-1.4a16.755,16.755,0,0,0,4.262-2.568,20.5,20.5,0,0,0,3.214-3.476h.175v5.9h3.386v1.537h-3.386v10.376" transform="translate(-1363.394 -760.184)"></path>
				<path id="Path_392" data-name="Path 392" d="M1444.506,777.565l.042,12.088a12.219,12.219,0,0,0,.087,1.415q.087.751.227,1.415t.245,1.136q.1.471.244.926l.14.489v.14h-6.959v-.14a6.364,6.364,0,0,1,.174-.7q.139-.593.3-1.257t.3-1.642a12.767,12.767,0,0,0,.14-1.782v-6.568" transform="translate(-1365.864 -769.084)"></path>
				<rect id="Rectangle_534" data-name="Rectangle 534" width="4.917" height="4.917" transform="translate(63.594 0.248)"></rect>
				<rect id="Rectangle_535" data-name="Rectangle 535" width="4.917" height="4.917" transform="translate(153.512 0.248)"></rect>
			</g>
		</g>
	</svg>